<svg xmlns="http://www.w3.org/2000/svg" xmlns:xlink="http://www.w3.org/1999/xlink" viewBox="0 0 310.22 184.62">
  <defs>
    <style>
    .cls-1 {
      isolation: isolate;
    }

    .cls-2 {
      fill: url(#linear-gradient);
    }

    .cls-3 {
      mix-blend-mode: soft-light;
      opacity: 0.5;
    }

    .cls-4 {
      fill: url(#linear-gradient-2);
    }

    .cls-5 {
      fill: url(#linear-gradient-3);
    }

    .cls-6 {
      fill: #000;
    }

    .cls-7 {
      fill: url(#linear-gradient-4);
    }

    .cls-8 {
      fill: url(#linear-gradient-5);
    }

    .cls-9 {
      fill: url(#linear-gradient-6);
    }

    .cls-10 {
      fill: url(#linear-gradient-7);
    }

    .cls-11 {
      fill: url(#linear-gradient-8);
    }

    .cls-12 {
      fill: url(#linear-gradient-9);
    }

    .cls-13 {
      fill: url(#linear-gradient-10);
    }

    .cls-14 {
      fill: url(#linear-gradient-11);
    }

    .cls-15 {
      fill: url(#linear-gradient-12);
    }
    </style>
    <linearGradient id="linear-gradient" x1="509.3" y1="-110.48" x2="18.32" y2="170.63" gradientUnits="userSpaceOnUse">
      <stop offset="0" stop-color="#000" />
      <stop offset="0.4" stop-color="#fff" />
    </linearGradient>
    <linearGradient id="linear-gradient-2" x1="139.67" y1="135.7" x2="274.98" y2="-62.6" gradientUnits="userSpaceOnUse">
      <stop offset="0" stop-color="#000" stop-opacity="0" />
      <stop offset="1" stop-color="#000" />
    </linearGradient>
    <linearGradient id="linear-gradient-3" x1="93.52" y1="125.79" x2="215.93" y2="-53.61" xlink:href="#linear-gradient-2" />
    <linearGradient id="linear-gradient-4" x1="27.09" y1="100.71" x2="77.39" y2="69.08" gradientUnits="userSpaceOnUse">
      <stop offset="0" stop-color="#fadf14" />
      <stop offset="0.5" stop-color="#ffb42e" />
      <stop offset="1" stop-color="#e66712" />
    </linearGradient>
    <linearGradient id="linear-gradient-5" x1="21.89" y1="92.44" x2="72.19" y2="60.81" xlink:href="#linear-gradient-4" />
    <linearGradient id="linear-gradient-6" x1="27.27" y1="100.99" x2="77.57" y2="69.36" xlink:href="#linear-gradient-4" />
    <linearGradient id="linear-gradient-7" x1="32.29" y1="108.98" x2="82.59" y2="77.35" xlink:href="#linear-gradient-4" />
    <linearGradient id="linear-gradient-8" x1="31.42" y1="107.59" x2="81.72" y2="75.96" xlink:href="#linear-gradient-4" />
    <linearGradient id="linear-gradient-9" x1="26.92" y1="100.43" x2="77.22" y2="68.8" xlink:href="#linear-gradient-4" />
    <linearGradient id="linear-gradient-10" x1="37.21" y1="116.81" x2="87.51" y2="85.18" xlink:href="#linear-gradient-4" />
    <linearGradient id="linear-gradient-11" x1="22.76" y1="93.83" x2="73.07" y2="62.2" xlink:href="#linear-gradient-4" />
    <linearGradient id="linear-gradient-12" x1="16.97" y1="84.62" x2="67.27" y2="52.99" xlink:href="#linear-gradient-4" />
  </defs>
  <g class="cls-1">
    <g id="Layer_2" data-name="Layer 2">
      <g id="OBJECTS">
        <path class="cls-2" d="M310.22,15.25V169.37A15.26,15.26,0,0,1,295,184.62H15.26A15.26,15.26,0,0,1,0,169.37V15.25A15.25,15.25,0,0,1,15.26,0H295A15.25,15.25,0,0,1,310.22,15.25Z" />
        <g class="cls-3">
          <polygon class="cls-4" points="267.19 0 116.82 184.62 71.37 184.62 221.74 0 267.19 0" />
          <polygon class="cls-5" points="204.24 0 53.86 184.62 28.49 184.62 178.86 0 204.24 0" />
        </g>
        <path class="cls-6" d="M35.66,27.5a2.65,2.65,0,0,1,.91,2.13,2.21,2.21,0,0,1-.37,1.27,2.52,2.52,0,0,1-1,.84,2.47,2.47,0,0,1,2.06,2.57,2.73,2.73,0,0,1-1,2.3,4.49,4.49,0,0,1-2.86.79H28.2a.64.64,0,0,1-.34-.07.5.5,0,0,1-.17-.27,2.09,2.09,0,0,1-.06-.58,2.05,2.05,0,0,1,.06-.57.54.54,0,0,1,.17-.28.64.64,0,0,1,.34-.07h1v-7h-1a.64.64,0,0,1-.34-.07.5.5,0,0,1-.17-.27,2.05,2.05,0,0,1-.06-.57,2.09,2.09,0,0,1,.06-.58.5.5,0,0,1,.17-.27.63.63,0,0,1,.34-.08h4.68A4.23,4.23,0,0,1,35.66,27.5ZM31.41,31h1.27a2,2,0,0,0,1.21-.29,1,1,0,0,0,.39-.88,1,1,0,0,0-.38-.87,2.07,2.07,0,0,0-1.22-.28H31.41Zm0,4.49h1.72c1.16,0,1.75-.42,1.75-1.25a1.18,1.18,0,0,0-.43-1,2.25,2.25,0,0,0-1.32-.32H31.41Z" />
        <path class="cls-6" d="M45.26,26.87a.78.78,0,0,1,.32.44l2.61,8.25H49a.62.62,0,0,1,.33.07.46.46,0,0,1,.18.27,2.05,2.05,0,0,1,.06.57,2.09,2.09,0,0,1-.06.58.46.46,0,0,1-.18.27.62.62,0,0,1-.33.08H45.16a.57.57,0,0,1-.33-.08.46.46,0,0,1-.18-.27,2.09,2.09,0,0,1-.06-.58,2.05,2.05,0,0,1,.06-.57.46.46,0,0,1,.18-.27.58.58,0,0,1,.33-.07h.77l-.4-1.31H42.25l-.4,1.31h.67a.62.62,0,0,1,.33.07.45.45,0,0,1,.17.27,2.05,2.05,0,0,1,.06.57,2.09,2.09,0,0,1-.06.58.45.45,0,0,1-.17.27.62.62,0,0,1-.33.08H38.88a.62.62,0,0,1-.33-.08.45.45,0,0,1-.17-.27,2.09,2.09,0,0,1-.06-.58,2.05,2.05,0,0,1,.06-.57.45.45,0,0,1,.17-.27.62.62,0,0,1,.33-.07h.76l2.27-7h-1.5a.62.62,0,0,1-.33-.07.49.49,0,0,1-.18-.28,2.65,2.65,0,0,1,0-.57,2.69,2.69,0,0,1,0-.58.46.46,0,0,1,.18-.27.62.62,0,0,1,.33-.07h4.26A1.14,1.14,0,0,1,45.26,26.87Zm-1.38,1.7-1.1,3.84H45l-1.07-3.84Z" />
        <path class="cls-6" d="M60.35,26.81a.46.46,0,0,1,.18.27,2.09,2.09,0,0,1,.06.58,2.05,2.05,0,0,1-.06.57.46.46,0,0,1-.18.27.62.62,0,0,1-.33.07h-.51V37a.51.51,0,0,1-.23.45,1.42,1.42,0,0,1-.76.15,1.4,1.4,0,0,1-.62-.11,1,1,0,0,1-.35-.37l-4-6.7h0v5.14h1a.64.64,0,0,1,.34.07.54.54,0,0,1,.17.28,2.05,2.05,0,0,1,.06.57,2.09,2.09,0,0,1-.06.58.5.5,0,0,1-.17.27.64.64,0,0,1-.34.07H50.83a.62.62,0,0,1-.33-.07.46.46,0,0,1-.18-.27,2.09,2.09,0,0,1-.06-.58,2.05,2.05,0,0,1,.06-.57.49.49,0,0,1,.18-.28.62.62,0,0,1,.33-.07h.6v-7h-.6a.62.62,0,0,1-.33-.07.46.46,0,0,1-.18-.27,2.05,2.05,0,0,1-.06-.57,2.09,2.09,0,0,1,.06-.58.46.46,0,0,1,.18-.27.62.62,0,0,1,.33-.08H53.2a.55.55,0,0,1,.51.24l3.73,6.18h0V28.57h-.82a.58.58,0,0,1-.33-.07.46.46,0,0,1-.18-.27,2.05,2.05,0,0,1-.06-.57,2.09,2.09,0,0,1,.06-.58.46.46,0,0,1,.18-.27.57.57,0,0,1,.33-.08H60A.62.62,0,0,1,60.35,26.81Z" />
        <path class="cls-6" d="M71.71,26.81a.46.46,0,0,1,.18.27,2.09,2.09,0,0,1,.06.58,2.05,2.05,0,0,1-.06.57.46.46,0,0,1-.18.27.6.6,0,0,1-.33.07H71l-3.14,3.07a2,2,0,0,1,.91.27,2.33,2.33,0,0,1,.72.68,4.9,4.9,0,0,1,.38.62c.12.21.24.47.39.77.21.45.36.74.45.89a2,2,0,0,0,.41.51.75.75,0,0,0,.5.18h.09a.62.62,0,0,1,.33.07.44.44,0,0,1,.17.28,2.05,2.05,0,0,1,.06.57,2.09,2.09,0,0,1-.06.58.41.41,0,0,1-.17.27.62.62,0,0,1-.33.07H70.45a1.32,1.32,0,0,1-.93-.34,3.17,3.17,0,0,1-.71-.94,9.69,9.69,0,0,1-.43-.9l-.33-.68a6.51,6.51,0,0,0-.32-.57,2.12,2.12,0,0,0-.52-.55,1,1,0,0,0-.59-.2,1,1,0,0,0-.71.31l-.46.44v1.59h1a.58.58,0,0,1,.33.07.49.49,0,0,1,.18.28,2.05,2.05,0,0,1,.06.57,2.09,2.09,0,0,1-.06.58.46.46,0,0,1-.18.27.58.58,0,0,1-.33.07H62.24a.58.58,0,0,1-.33-.07.46.46,0,0,1-.18-.27,2.09,2.09,0,0,1-.06-.58,2.05,2.05,0,0,1,.06-.57.49.49,0,0,1,.18-.28.58.58,0,0,1,.33-.07h1v-7h-1a.58.58,0,0,1-.33-.07.46.46,0,0,1-.18-.27,2.05,2.05,0,0,1-.06-.57,2.09,2.09,0,0,1,.06-.58.46.46,0,0,1,.18-.27.57.57,0,0,1,.33-.08h3.63a.59.59,0,0,1,.33.08.46.46,0,0,1,.18.27,2.09,2.09,0,0,1,.06.58,2.05,2.05,0,0,1-.06.57.46.46,0,0,1-.18.27.6.6,0,0,1-.33.07h-.42v2.88l2.91-2.88h-.48a.62.62,0,0,1-.33-.07.45.45,0,0,1-.17-.27,2.05,2.05,0,0,1-.06-.57,2.09,2.09,0,0,1,.06-.58.45.45,0,0,1,.17-.27.62.62,0,0,1,.33-.08h3.5A.59.59,0,0,1,71.71,26.81Z" />
        <path class="cls-6" d="M94.57,26.81a.46.46,0,0,1,.18.27,2.09,2.09,0,0,1,.06.58,2.05,2.05,0,0,1-.06.57.46.46,0,0,1-.18.27.58.58,0,0,1-.33.07h-.51V37a.51.51,0,0,1-.23.45,1.42,1.42,0,0,1-.76.15,1.4,1.4,0,0,1-.62-.11,1,1,0,0,1-.35-.37l-4-6.7h0v5.14h1a.62.62,0,0,1,.33.07.48.48,0,0,1,.17.28,2.05,2.05,0,0,1,.06.57,2.09,2.09,0,0,1-.06.58.45.45,0,0,1-.17.27.62.62,0,0,1-.33.07H85.05a.62.62,0,0,1-.33-.07.45.45,0,0,1-.17-.27,2.09,2.09,0,0,1-.06-.58,2.05,2.05,0,0,1,.06-.57.48.48,0,0,1,.17-.28.62.62,0,0,1,.33-.07h.61v-7h-.61a.62.62,0,0,1-.33-.07.45.45,0,0,1-.17-.27,2.05,2.05,0,0,1-.06-.57,2.09,2.09,0,0,1,.06-.58.45.45,0,0,1,.17-.27.62.62,0,0,1,.33-.08h2.38a.53.53,0,0,1,.5.24l3.73,6.18h0V28.57h-.83a.62.62,0,0,1-.33-.07.46.46,0,0,1-.18-.27,2.05,2.05,0,0,1-.06-.57,2.09,2.09,0,0,1,.06-.58.46.46,0,0,1,.18-.27.62.62,0,0,1,.33-.08h3.37A.57.57,0,0,1,94.57,26.81Z" />
        <path class="cls-6" d="M102.3,26.87a.78.78,0,0,1,.32.44l2.61,8.25H106a.62.62,0,0,1,.33.07.46.46,0,0,1,.18.27,2.65,2.65,0,0,1,0,.57,2.69,2.69,0,0,1,0,.58.46.46,0,0,1-.18.27.62.62,0,0,1-.33.08H102.2a.63.63,0,0,1-.34-.08.5.5,0,0,1-.17-.27,2.09,2.09,0,0,1-.06-.58,2.05,2.05,0,0,1,.06-.57.5.5,0,0,1,.17-.27.64.64,0,0,1,.34-.07H103l-.4-1.31H99.29l-.4,1.31h.66a.64.64,0,0,1,.34.07.5.5,0,0,1,.17.27,2.05,2.05,0,0,1,.06.57,2.09,2.09,0,0,1-.06.58.5.5,0,0,1-.17.27.63.63,0,0,1-.34.08H95.92a.62.62,0,0,1-.33-.08.46.46,0,0,1-.18-.27,2.69,2.69,0,0,1,0-.58,2.65,2.65,0,0,1,0-.57.46.46,0,0,1,.18-.27.62.62,0,0,1,.33-.07h.76l2.27-7h-1.5a.62.62,0,0,1-.33-.07.49.49,0,0,1-.18-.28,2.05,2.05,0,0,1-.06-.57,2.09,2.09,0,0,1,.06-.58.46.46,0,0,1,.18-.27.62.62,0,0,1,.33-.07h4.26A1.14,1.14,0,0,1,102.3,26.87Zm-1.38,1.7-1.11,3.84h2.24L101,28.57Z" />
        <path class="cls-6" d="M117.39,26.81a.41.41,0,0,1,.17.27,2.09,2.09,0,0,1,.06.58,2.05,2.05,0,0,1-.06.57.41.41,0,0,1-.17.27.62.62,0,0,1-.33.07h-.49l.13,7h.54a.62.62,0,0,1,.33.07.44.44,0,0,1,.17.28,2.05,2.05,0,0,1,.06.57,2.09,2.09,0,0,1-.06.58.41.41,0,0,1-.17.27.62.62,0,0,1-.33.07h-3.37a.62.62,0,0,1-.33-.07.45.45,0,0,1-.17-.27,2.09,2.09,0,0,1-.06-.58,2.05,2.05,0,0,1,.06-.57.48.48,0,0,1,.17-.28.62.62,0,0,1,.33-.07h.83l0-5.32-1.36,3.66a.93.93,0,0,1-.32.45,1.1,1.1,0,0,1-.59.13,1.08,1.08,0,0,1-.59-.13.89.89,0,0,1-.33-.45l-1.37-3.64,0,5.3h.83a.58.58,0,0,1,.33.07.49.49,0,0,1,.18.28,2.05,2.05,0,0,1,.06.57,2.09,2.09,0,0,1-.06.58.46.46,0,0,1-.18.27.58.58,0,0,1-.33.07h-3.36a.6.6,0,0,1-.33-.07.46.46,0,0,1-.18-.27,2.09,2.09,0,0,1-.06-.58,2.05,2.05,0,0,1,.06-.57.49.49,0,0,1,.18-.28.6.6,0,0,1,.33-.07H108l.13-7h-.48a.6.6,0,0,1-.33-.07.46.46,0,0,1-.18-.27,2.05,2.05,0,0,1-.06-.57,2.09,2.09,0,0,1,.06-.58.46.46,0,0,1,.18-.27.59.59,0,0,1,.33-.08h2.55a.68.68,0,0,1,.31.06.4.4,0,0,1,.18.22l1.64,4.41L114,27a.35.35,0,0,1,.17-.22.76.76,0,0,1,.32-.06h2.56A.62.62,0,0,1,117.39,26.81Z" />
        <path class="cls-6" d="M128,26.86a.62.62,0,0,1,.14.45V30a.44.44,0,0,1-.26.43,1.93,1.93,0,0,1-.84.14,1.64,1.64,0,0,1-.76-.13.47.47,0,0,1-.21-.44V28.66h-3.59v2.28h2.19a.48.48,0,0,1,.44.2,1.69,1.69,0,0,1,.13.77,1.64,1.64,0,0,1-.13.76.48.48,0,0,1-.44.2h-2.19v2.6h3.68V33.65a.44.44,0,0,1,.27-.43,2,2,0,0,1,.86-.13,1.83,1.83,0,0,1,.81.12.46.46,0,0,1,.22.44v3.17a.61.61,0,0,1-.14.44.59.59,0,0,1-.44.14h-8.38a.64.64,0,0,1-.34-.07.5.5,0,0,1-.17-.27,2.09,2.09,0,0,1-.06-.58,2.05,2.05,0,0,1,.06-.57.54.54,0,0,1,.17-.28.64.64,0,0,1,.34-.07h.87v-7h-.87a.64.64,0,0,1-.34-.07.5.5,0,0,1-.17-.27,2.05,2.05,0,0,1-.06-.57,2.09,2.09,0,0,1,.06-.58.5.5,0,0,1,.17-.27.63.63,0,0,1,.34-.08h8.2A.61.61,0,0,1,128,26.86Z" />
        <path class="cls-6" d="M32.53,123.29a1.36,1.36,0,0,1,.12.69,1.39,1.39,0,0,1-.12.69.41.41,0,0,1-.39.18h-3.6l-.11,1.81a4.32,4.32,0,0,1,1.56-.3,3.42,3.42,0,0,1,1.72.41,2.73,2.73,0,0,1,1.08,1.15,3.79,3.79,0,0,1,.36,1.69,3,3,0,0,1-1,2.48,4.3,4.3,0,0,1-2.81.84,6.69,6.69,0,0,1-1.54-.19,6.09,6.09,0,0,1-1.39-.54.54.54,0,0,1-.31-.52,1.83,1.83,0,0,1,.14-.58c.18-.46.39-.68.62-.68a.41.41,0,0,1,.16,0,5.31,5.31,0,0,0,2.32.62,1.8,1.8,0,0,0,1.2-.39,1.35,1.35,0,0,0,.45-1.08,1.28,1.28,0,0,0-1.41-1.4,4.38,4.38,0,0,0-1.56.29,2,2,0,0,1-.67.13,1.6,1.6,0,0,1-.73-.12.4.4,0,0,1-.2-.41l.27-4.47a.64.64,0,0,1,.13-.41.55.55,0,0,1,.4-.12h4.94A.4.4,0,0,1,32.53,123.29Z" />
        <path class="cls-6" d="M42,123.63a2.5,2.5,0,0,1,.89,2.06,2.09,2.09,0,0,1-1.15,2,2.48,2.48,0,0,1,1,.85,2.3,2.3,0,0,1,.38,1.32,2.69,2.69,0,0,1-1,2.3,4.71,4.71,0,0,1-2.89.78,5.79,5.79,0,0,1-2.78-.63.53.53,0,0,1-.31-.52,1.54,1.54,0,0,1,.14-.58c.18-.46.39-.69.61-.69a.68.68,0,0,1,.17,0,5.25,5.25,0,0,0,1.09.39,4.11,4.11,0,0,0,1.08.14,2.2,2.2,0,0,0,1.3-.32,1.23,1.23,0,0,0,.09-1.8,1.53,1.53,0,0,0-1-.3h-.84a.41.41,0,0,1-.39-.18,2,2,0,0,1,0-1.38.4.4,0,0,1,.39-.19h.62a1.79,1.79,0,0,0,1.08-.27.94.94,0,0,0,.35-.83,1,1,0,0,0-.34-.84,1.54,1.54,0,0,0-1-.28,4.54,4.54,0,0,0-1.24.18v.65a.4.4,0,0,1-.19.39,1.36,1.36,0,0,1-.69.12,1.73,1.73,0,0,1-.75-.12.41.41,0,0,1-.24-.39V124a.53.53,0,0,1,.4-.52,7.44,7.44,0,0,1,1.34-.41,6.46,6.46,0,0,1,1.37-.15A4,4,0,0,1,42,123.63Z" />
        <path class="cls-6" d="M51.3,123.29a2.68,2.68,0,0,1,1.14,1,3,3,0,0,1,.39,1.56,3.21,3.21,0,0,1-.37,1.51,6,6,0,0,1-1.18,1.46L49.06,131h2.29v-.75a.45.45,0,0,1,.19-.4,1.57,1.57,0,0,1,.69-.11,1.78,1.78,0,0,1,.76.12.41.41,0,0,1,.23.39v2a.56.56,0,0,1-.12.4.52.52,0,0,1-.4.13H46.41a.65.65,0,0,1-.31-.07.41.41,0,0,1-.15-.25,1.72,1.72,0,0,1-.06-.52,2.72,2.72,0,0,1,0-.49.53.53,0,0,1,.16-.27l3.48-3.35a6.19,6.19,0,0,0,.93-1,1.44,1.44,0,0,0,.26-.82,1.29,1.29,0,0,0-.32-.9,1.24,1.24,0,0,0-.95-.34,3.1,3.1,0,0,0-1.4.34v1.14a.41.41,0,0,1-.19.39,1.36,1.36,0,0,1-.69.12,1.78,1.78,0,0,1-.76-.12.41.41,0,0,1-.23-.39v-1.93a.58.58,0,0,1,.35-.52,6.59,6.59,0,0,1,1.47-.6,5.75,5.75,0,0,1,1.45-.2A4.17,4.17,0,0,1,51.3,123.29Z" />
        <path class="cls-6" d="M61.28,123.29a2.68,2.68,0,0,1,1.14,1,3,3,0,0,1,.38,1.56,3.1,3.1,0,0,1-.37,1.51,5.74,5.74,0,0,1-1.17,1.46L59,131h2.29v-.75a.45.45,0,0,1,.19-.4,1.57,1.57,0,0,1,.69-.11,1.78,1.78,0,0,1,.76.12.41.41,0,0,1,.23.39v2a.56.56,0,0,1-.12.4.53.53,0,0,1-.41.13H56.38a.6.6,0,0,1-.3-.07.41.41,0,0,1-.15-.25,1.72,1.72,0,0,1-.06-.52,2.72,2.72,0,0,1,0-.49.53.53,0,0,1,.16-.27l3.48-3.35a6.19,6.19,0,0,0,.93-1,1.44,1.44,0,0,0,.26-.82,1.29,1.29,0,0,0-.32-.9,1.26,1.26,0,0,0-1-.34,3.1,3.1,0,0,0-1.4.34v1.14a.43.43,0,0,1-.19.39,1.39,1.39,0,0,1-.69.12,1.78,1.78,0,0,1-.76-.12.41.41,0,0,1-.23-.39v-1.93a.56.56,0,0,1,.35-.52,6.59,6.59,0,0,1,1.47-.6,5.73,5.73,0,0,1,1.44-.2A4.19,4.19,0,0,1,61.28,123.29Z" />
        <path class="cls-6" d="M81.24,123.29a2.68,2.68,0,0,1,1.14,1,3.33,3.33,0,0,1,0,3.07,6,6,0,0,1-1.17,1.46L79,131h2.29v-.75a.43.43,0,0,1,.19-.4,1.51,1.51,0,0,1,.69-.11,1.7,1.7,0,0,1,.75.12.41.41,0,0,1,.24.39v2a.56.56,0,0,1-.12.4.53.53,0,0,1-.41.13H76.34a.6.6,0,0,1-.3-.07.47.47,0,0,1-.16-.25,2.21,2.21,0,0,1,0-.52,2,2,0,0,1,0-.49.53.53,0,0,1,.16-.27l3.48-3.35a6.19,6.19,0,0,0,.93-1,1.52,1.52,0,0,0,.26-.82,1.25,1.25,0,0,0-.33-.9,1.22,1.22,0,0,0-.94-.34A3.1,3.1,0,0,0,78,125v1.14a.43.43,0,0,1-.19.39,1.41,1.41,0,0,1-.69.12,1.78,1.78,0,0,1-.76-.12.4.4,0,0,1-.23-.39v-1.93a.57.57,0,0,1,.34-.52,6.86,6.86,0,0,1,1.48-.6,5.67,5.67,0,0,1,1.44-.2A4.19,4.19,0,0,1,81.24,123.29Z" />
        <path class="cls-6" d="M92.41,123.29a1.51,1.51,0,0,1,.11.69,1.54,1.54,0,0,1-.11.69.44.44,0,0,1-.4.18H88.42l-.12,1.81a4.32,4.32,0,0,1,1.56-.3,3.39,3.39,0,0,1,1.72.41,2.61,2.61,0,0,1,1.08,1.15,3.79,3.79,0,0,1,.37,1.69,3,3,0,0,1-1,2.48,4.31,4.31,0,0,1-2.82.84,6.61,6.61,0,0,1-1.53-.19,6.17,6.17,0,0,1-1.4-.54.55.55,0,0,1-.3-.52,1.76,1.76,0,0,1,.13-.58c.19-.46.39-.68.62-.68a.37.37,0,0,1,.16,0,5.34,5.34,0,0,0,2.32.62,1.77,1.77,0,0,0,1.2-.39,1.33,1.33,0,0,0,.46-1.08,1.29,1.29,0,0,0-1.42-1.4,4.38,4.38,0,0,0-1.56.29,2,2,0,0,1-.66.13,1.65,1.65,0,0,1-.74-.12.42.42,0,0,1-.2-.41l.27-4.47a.71.71,0,0,1,.13-.41.55.55,0,0,1,.4-.12H92A.43.43,0,0,1,92.41,123.29Z" />
        <path class="cls-6" d="M101.17,123.34a3.65,3.65,0,0,1,1.32,1.19,3.88,3.88,0,0,1,.51,1.2,6.29,6.29,0,0,1,.18,1.53,5.43,5.43,0,0,1-1.49,4.1A6.9,6.9,0,0,1,97,132.93a.37.37,0,0,1-.33-.21,1.75,1.75,0,0,1-.16-.66c0-.09,0-.22,0-.37,0-.47.11-.71.33-.73a8.38,8.38,0,0,0,2.35-.38,2.6,2.6,0,0,0,1.31-.88,3.12,3.12,0,0,0,.55-1.53,2.68,2.68,0,0,1-1,.72,3.1,3.1,0,0,1-1.25.23,3.36,3.36,0,0,1-1.61-.38,2.88,2.88,0,0,1-1.11-1.08,3.17,3.17,0,0,1-.4-1.58,2.93,2.93,0,0,1,.47-1.63,3,3,0,0,1,1.3-1.12,4.18,4.18,0,0,1,1.87-.41A3.81,3.81,0,0,1,101.17,123.34Zm-2.93,1.76a1.21,1.21,0,0,0-.42,1,1.27,1.27,0,0,0,.39,1,1.62,1.62,0,0,0,1.09.35,2.06,2.06,0,0,0,.84-.16,1.37,1.37,0,0,0,.57-.46,1.14,1.14,0,0,0,.2-.66,1.37,1.37,0,0,0-.18-.69,1.4,1.4,0,0,0-.54-.51,1.81,1.81,0,0,0-.83-.19A1.68,1.68,0,0,0,98.24,125.1Z" />
        <path class="cls-6" d="M112.75,123.13a1.75,1.75,0,0,1,.16.66,3.57,3.57,0,0,1,0,.37c0,.47-.11.71-.34.73a10.36,10.36,0,0,0-2.47.38,3.48,3.48,0,0,0-1.52.9,2.83,2.83,0,0,0-.7,1.51,2.68,2.68,0,0,1,1-.72,3.06,3.06,0,0,1,1.25-.23,3.27,3.27,0,0,1,1.61.38,2.88,2.88,0,0,1,1.11,1.08,3.16,3.16,0,0,1,.39,1.58,2.93,2.93,0,0,1-.46,1.63,3.16,3.16,0,0,1-1.3,1.12,4.21,4.21,0,0,1-1.87.41,3.78,3.78,0,0,1-1.81-.42,3.57,3.57,0,0,1-1.32-1.19,3.84,3.84,0,0,1-.51-1.21,5.7,5.7,0,0,1-.19-1.52,5.62,5.62,0,0,1,.76-3,5.11,5.11,0,0,1,2.25-1.93,9.55,9.55,0,0,1,3.63-.78A.37.37,0,0,1,112.75,123.13Zm-3.92,5.48a1.37,1.37,0,0,0-.57.46,1.14,1.14,0,0,0-.2.66,1.37,1.37,0,0,0,.18.69,1.27,1.27,0,0,0,.54.51,1.77,1.77,0,0,0,.82.18,1.66,1.66,0,0,0,1.12-.36,1.19,1.19,0,0,0,.43-1,1.23,1.23,0,0,0-.4-1,1.58,1.58,0,0,0-1.08-.35A2,2,0,0,0,108.83,128.61Z" />
        <path class="cls-6" d="M131.13,123.29a2.68,2.68,0,0,1,1.14,1,3,3,0,0,1,.39,1.56,3.21,3.21,0,0,1-.37,1.51,6,6,0,0,1-1.18,1.46L128.89,131h2.3v-.75a.44.44,0,0,1,.18-.4,1.57,1.57,0,0,1,.69-.11,1.78,1.78,0,0,1,.76.12.41.41,0,0,1,.24.39v2a.56.56,0,0,1-.13.4.51.51,0,0,1-.4.13h-6.29a.6.6,0,0,1-.3-.07.42.42,0,0,1-.16-.25,1.78,1.78,0,0,1,0-.52,2,2,0,0,1,0-.49.46.46,0,0,1,.15-.27l3.49-3.35a6.19,6.19,0,0,0,.93-1,1.51,1.51,0,0,0,.25-.82,1.29,1.29,0,0,0-.32-.9,1.23,1.23,0,0,0-.94-.34,3.14,3.14,0,0,0-1.41.34v1.14a.41.41,0,0,1-.19.39,1.36,1.36,0,0,1-.69.12,1.73,1.73,0,0,1-.75-.12.41.41,0,0,1-.24-.39v-1.93a.58.58,0,0,1,.35-.52,6.59,6.59,0,0,1,1.47-.6,5.75,5.75,0,0,1,1.45-.2A4.14,4.14,0,0,1,131.13,123.29Z" />
        <path class="cls-6" d="M142.89,131.15a.47.47,0,0,1,.16.25,2.73,2.73,0,0,1,0,1,.41.41,0,0,1-.16.24.51.51,0,0,1-.3.07h-6a.51.51,0,0,1-.3-.07.41.41,0,0,1-.16-.24,2.73,2.73,0,0,1,0-1,.47.47,0,0,1,.16-.25.51.51,0,0,1,.3-.07h2V125.6l-1.7,1a.48.48,0,0,1-.26.08.46.46,0,0,1-.3-.14,1.84,1.84,0,0,1-.29-.47,1.59,1.59,0,0,1-.16-.59.49.49,0,0,1,.08-.28.63.63,0,0,1,.24-.21l3.43-1.93a.87.87,0,0,1,.46-.13.52.52,0,0,1,.38.13.5.5,0,0,1,.15.39v7.66h1.92A.51.51,0,0,1,142.89,131.15Z" />
        <path class="cls-6" d="M152.28,123.29a1.36,1.36,0,0,1,.12.69,1.39,1.39,0,0,1-.12.69.43.43,0,0,1-.4.18h-3.59l-.11,1.81a4.32,4.32,0,0,1,1.56-.3,3.45,3.45,0,0,1,1.72.41,2.73,2.73,0,0,1,1.08,1.15,3.79,3.79,0,0,1,.36,1.69,3,3,0,0,1-1,2.48,4.31,4.31,0,0,1-2.82.84,6.68,6.68,0,0,1-1.53-.19,6.09,6.09,0,0,1-1.39-.54.54.54,0,0,1-.31-.52,1.83,1.83,0,0,1,.14-.58c.18-.46.39-.68.62-.68a.41.41,0,0,1,.16,0,5.3,5.3,0,0,0,2.31.62,1.81,1.81,0,0,0,1.21-.39,1.35,1.35,0,0,0,.45-1.08,1.28,1.28,0,0,0-1.41-1.4,4.38,4.38,0,0,0-1.56.29,2,2,0,0,1-.67.13,1.6,1.6,0,0,1-.73-.12.4.4,0,0,1-.2-.41l.27-4.47a.64.64,0,0,1,.13-.41.54.54,0,0,1,.39-.12h4.94A.42.42,0,0,1,152.28,123.29Z" />
        <path class="cls-6" d="M161.71,123.63a2.49,2.49,0,0,1,.88,2.06,2.08,2.08,0,0,1-1.14,2,2.48,2.48,0,0,1,1.05.85,2.3,2.3,0,0,1,.38,1.32,2.69,2.69,0,0,1-1,2.3,4.71,4.71,0,0,1-2.89.78,5.86,5.86,0,0,1-2.79-.63.54.54,0,0,1-.3-.52,1.71,1.71,0,0,1,.13-.58c.19-.46.39-.69.62-.69a.53.53,0,0,1,.16,0,5.69,5.69,0,0,0,1.09.39,4.24,4.24,0,0,0,1.09.14,2.2,2.2,0,0,0,1.3-.32,1.07,1.07,0,0,0,.44-.92,1.06,1.06,0,0,0-.35-.88,1.54,1.54,0,0,0-1-.3h-.84a.41.41,0,0,1-.39-.18,2,2,0,0,1,0-1.38.4.4,0,0,1,.39-.19h.62a1.79,1.79,0,0,0,1.08-.27,1,1,0,0,0,.35-.83,1,1,0,0,0-.34-.84,1.54,1.54,0,0,0-1-.28,4.54,4.54,0,0,0-1.24.18v.65a.4.4,0,0,1-.19.39,1.36,1.36,0,0,1-.69.12,1.78,1.78,0,0,1-.76-.12.41.41,0,0,1-.23-.39V124a.53.53,0,0,1,.4-.52,7.59,7.59,0,0,1,1.33-.41,6.53,6.53,0,0,1,1.37-.15A4,4,0,0,1,161.71,123.63Z" />
        <path class="cls-6" d="M181,123.29a2.68,2.68,0,0,1,1.14,1,3.33,3.33,0,0,1,0,3.07,6,6,0,0,1-1.17,1.46L178.79,131h2.29v-.75a.43.43,0,0,1,.19-.4,1.51,1.51,0,0,1,.69-.11,1.7,1.7,0,0,1,.75.12.41.41,0,0,1,.24.39v2a.56.56,0,0,1-.12.4.53.53,0,0,1-.41.13h-6.29a.6.6,0,0,1-.3-.07.47.47,0,0,1-.16-.25,2.21,2.21,0,0,1,0-.52,2,2,0,0,1,0-.49.53.53,0,0,1,.16-.27l3.48-3.35a6.19,6.19,0,0,0,.93-1,1.52,1.52,0,0,0,.26-.82,1.25,1.25,0,0,0-.33-.9,1.22,1.22,0,0,0-.94-.34,3.1,3.1,0,0,0-1.4.34v1.14a.43.43,0,0,1-.19.39,1.41,1.41,0,0,1-.69.12,1.78,1.78,0,0,1-.76-.12.4.4,0,0,1-.23-.39v-1.93a.57.57,0,0,1,.34-.52,6.86,6.86,0,0,1,1.48-.6,5.67,5.67,0,0,1,1.44-.2A4.19,4.19,0,0,1,181,123.29Z" />
        <path class="cls-6" d="M191.64,123.63a2.47,2.47,0,0,1,.89,2.06,2.08,2.08,0,0,1-1.14,2,2.48,2.48,0,0,1,1.05.85,2.3,2.3,0,0,1,.38,1.32,2.7,2.7,0,0,1-1,2.3,4.67,4.67,0,0,1-2.88.78,5.86,5.86,0,0,1-2.79-.63.55.55,0,0,1-.31-.52,1.77,1.77,0,0,1,.14-.58c.19-.46.39-.69.62-.69l.16,0a5.46,5.46,0,0,0,1.09.39,4.18,4.18,0,0,0,1.09.14,2.22,2.22,0,0,0,1.3-.32,1.07,1.07,0,0,0,.44-.92,1.09,1.09,0,0,0-.35-.88,1.54,1.54,0,0,0-1-.3h-.84a.44.44,0,0,1-.4-.18,2.22,2.22,0,0,1,0-1.38.43.43,0,0,1,.4-.19H189a1.74,1.74,0,0,0,1.07-.27,1,1,0,0,0,.36-.83,1.05,1.05,0,0,0-.34-.84,1.56,1.56,0,0,0-1-.28,4.48,4.48,0,0,0-1.24.18v.65a.42.42,0,0,1-.19.39,1.41,1.41,0,0,1-.69.12,1.78,1.78,0,0,1-.76-.12.41.41,0,0,1-.23-.39V124a.53.53,0,0,1,.4-.52,7.33,7.33,0,0,1,1.33-.41,6.53,6.53,0,0,1,1.37-.15A4,4,0,0,1,191.64,123.63Z" />
        <path class="cls-6" d="M202.56,123.13a1.75,1.75,0,0,1,.16.66,3.57,3.57,0,0,1,0,.37c0,.47-.11.71-.33.73a10.37,10.37,0,0,0-2.48.38,3.48,3.48,0,0,0-1.52.9,2.91,2.91,0,0,0-.7,1.51,2.68,2.68,0,0,1,1-.72,3.06,3.06,0,0,1,1.25-.23,3.27,3.27,0,0,1,1.61.38,2.88,2.88,0,0,1,1.11,1.08,3.16,3.16,0,0,1,.39,1.58,2.93,2.93,0,0,1-.46,1.63,3.1,3.1,0,0,1-1.3,1.12,4.18,4.18,0,0,1-1.87.41,3.81,3.81,0,0,1-1.81-.42,3.65,3.65,0,0,1-1.32-1.19,3.84,3.84,0,0,1-.51-1.21,6.14,6.14,0,0,1-.19-1.52,5.62,5.62,0,0,1,.76-3,5.11,5.11,0,0,1,2.25-1.93,9.55,9.55,0,0,1,3.63-.78A.36.36,0,0,1,202.56,123.13Zm-3.92,5.48a1.37,1.37,0,0,0-.57.46,1.14,1.14,0,0,0-.2.66,1.37,1.37,0,0,0,.18.69,1.27,1.27,0,0,0,.54.51,1.8,1.8,0,0,0,.82.18,1.7,1.7,0,0,0,1.13-.36,1.21,1.21,0,0,0,.42-1,1.23,1.23,0,0,0-.4-1,1.58,1.58,0,0,0-1.08-.35A2.06,2.06,0,0,0,198.64,128.61Z" />
        <path class="cls-6" d="M211,123.29a2.73,2.73,0,0,1,1.15,1,2.61,2.61,0,0,1,.4,1.39,2.2,2.2,0,0,1-.35,1.26,2.42,2.42,0,0,1-1,.79,2.53,2.53,0,0,1,1.21.86,2.33,2.33,0,0,1,.43,1.45,2.64,2.64,0,0,1-.45,1.54,2.89,2.89,0,0,1-1.26,1,5.25,5.25,0,0,1-3.77,0,2.89,2.89,0,0,1-1.26-1,2.57,2.57,0,0,1-.46-1.54,2.43,2.43,0,0,1,.43-1.46,2.61,2.61,0,0,1,1.22-.85,2.28,2.28,0,0,1-1-.79,2.2,2.2,0,0,1-.35-1.26,2.53,2.53,0,0,1,.4-1.39,2.67,2.67,0,0,1,1.15-1,3.9,3.9,0,0,1,1.73-.37A4,4,0,0,1,211,123.29Zm-2.81,5.61a1.23,1.23,0,0,0-.37.95,1.25,1.25,0,0,0,.37,1,1.87,1.87,0,0,0,2.15,0,1.25,1.25,0,0,0,.37-1,1.23,1.23,0,0,0-.37-.95,1.79,1.79,0,0,0-2.15,0Zm.16-3.89a1.06,1.06,0,0,0-.35.82,1.07,1.07,0,0,0,.34.82,1.54,1.54,0,0,0,1.85,0,1.06,1.06,0,0,0,.33-.82,1.05,1.05,0,0,0-.34-.82,1.47,1.47,0,0,0-1.83,0Z" />
        <path class="cls-6" d="M29.92,146.51a.34.34,0,0,1,.13.2,1.68,1.68,0,0,1,0,.44,1.6,1.6,0,0,1,0,.43.36.36,0,0,1-.13.21.58.58,0,0,1-.25.05H28.18v5.22h2.39v-2.12a.33.33,0,0,1,.21-.33,1.67,1.67,0,0,1,.69-.1,2.08,2.08,0,0,1,.49,0,.39.39,0,0,1,.24.14.37.37,0,0,1,.07.25v3.14a.37.37,0,0,1-.44.44H25.49a.43.43,0,0,1-.25-.05.34.34,0,0,1-.14-.2,2.44,2.44,0,0,1,0-.88.38.38,0,0,1,.14-.2.42.42,0,0,1,.25-.06h1v-5.29h-1a.52.52,0,0,1-.25-.05.37.37,0,0,1-.14-.21,1.6,1.6,0,0,1,0-.43,1.68,1.68,0,0,1,0-.44.34.34,0,0,1,.14-.2.42.42,0,0,1,.25-.06h4.18A.46.46,0,0,1,29.92,146.51Z" />
        <path class="cls-6" d="M39.15,146.81a3.32,3.32,0,0,1,1.32,1.45,5.59,5.59,0,0,1,0,4.44,3.35,3.35,0,0,1-1.32,1.46,4,4,0,0,1-3.93,0,3.35,3.35,0,0,1-1.32-1.46,5.48,5.48,0,0,1,0-4.44,3.32,3.32,0,0,1,1.32-1.45,4,4,0,0,1,3.93,0Zm-3.4,1.71a4.19,4.19,0,0,0,0,3.93,1.65,1.65,0,0,0,1.43.68,1.68,1.68,0,0,0,1.44-.68,4.19,4.19,0,0,0,0-3.93,1.68,1.68,0,0,0-1.44-.68A1.65,1.65,0,0,0,35.75,148.52Z" />
        <path class="cls-6" d="M48,147.08a2.26,2.26,0,0,1,.77,1.84,1.92,1.92,0,0,1-1.69,2,1.25,1.25,0,0,1,.58.42,3.28,3.28,0,0,1,.27.38q.12.21.27.51c.11.22.19.38.25.47a1.44,1.44,0,0,0,.27.34.53.53,0,0,0,.31.11h.13a.44.44,0,0,1,.25.06.37.37,0,0,1,.13.2,2,2,0,0,1,0,.88.34.34,0,0,1-.13.2.44.44,0,0,1-.25.05h-.66a1.6,1.6,0,0,1-.87-.21,2,2,0,0,1-.61-.73c-.09-.16-.2-.38-.33-.65s-.18-.39-.26-.55a4,4,0,0,0-.27-.44,1.22,1.22,0,0,0-.47-.42,1.32,1.32,0,0,0-.62-.13h-.43v1.74h.66a.46.46,0,0,1,.25.06.37.37,0,0,1,.13.2,2.44,2.44,0,0,1,0,.88.34.34,0,0,1-.13.2.47.47,0,0,1-.25.05H42.2a.43.43,0,0,1-.25-.05.34.34,0,0,1-.14-.2,2.44,2.44,0,0,1,0-.88.38.38,0,0,1,.14-.2.42.42,0,0,1,.25-.06h.72v-5.29H42.2a.52.52,0,0,1-.25-.05.37.37,0,0,1-.14-.21,1.6,1.6,0,0,1,0-.43,1.68,1.68,0,0,1,0-.44.34.34,0,0,1,.14-.2.42.42,0,0,1,.25-.06h3.58A3.42,3.42,0,0,1,48,147.08Zm-3.36,2.85h1a1.8,1.8,0,0,0,1-.25,1,1,0,0,0,0-1.52,1.72,1.72,0,0,0-1-.25h-1Z" />
        <path class="cls-6" d="M57.1,146.55a.51.51,0,0,1,.1.34V149a.33.33,0,0,1-.2.32,1.42,1.42,0,0,1-.63.1,1.28,1.28,0,0,1-.58-.09.37.37,0,0,1-.16-.33v-1H52.91v1.72h1.66a.37.37,0,0,1,.34.16,1.28,1.28,0,0,1,.09.58,1.23,1.23,0,0,1-.09.57.39.39,0,0,1-.34.16H52.91v2H55.7v-1.37a.33.33,0,0,1,.2-.33,1.54,1.54,0,0,1,.66-.1,1.4,1.4,0,0,1,.61.09.37.37,0,0,1,.17.34v2.39a.38.38,0,0,1-.45.44H50.55a.44.44,0,0,1-.25-.05.34.34,0,0,1-.13-.2,2,2,0,0,1,0-.88.37.37,0,0,1,.13-.2.44.44,0,0,1,.25-.06h.66v-5.29h-.66a.55.55,0,0,1-.25-.05.36.36,0,0,1-.13-.21,1.53,1.53,0,0,1-.05-.43,1.61,1.61,0,0,1,.05-.44.34.34,0,0,1,.13-.2.44.44,0,0,1,.25-.06h6.21A.46.46,0,0,1,57.1,146.55Z" />
        <path class="cls-6" d="M66,146.51a.34.34,0,0,1,.14.2,1.68,1.68,0,0,1,0,.44,1.6,1.6,0,0,1,0,.43.37.37,0,0,1-.14.21.55.55,0,0,1-.25.05h-.37l.1,5.29h.41a.44.44,0,0,1,.25.06.37.37,0,0,1,.13.2,2,2,0,0,1,0,.88.34.34,0,0,1-.13.2.44.44,0,0,1-.25.05H63.38a.44.44,0,0,1-.25-.05.34.34,0,0,1-.13-.2,2,2,0,0,1,0-.88.37.37,0,0,1,.13-.2.44.44,0,0,1,.25-.06H64l0-4-1,2.78a.62.62,0,0,1-.24.33,1.06,1.06,0,0,1-.9,0,.69.69,0,0,1-.25-.33l-1-2.76,0,4h.63a.44.44,0,0,1,.25.06.45.45,0,0,1,.14.2,2.44,2.44,0,0,1,0,.88.4.4,0,0,1-.14.2.44.44,0,0,1-.25.05H58.57a.48.48,0,0,1-.26-.05.34.34,0,0,1-.13-.2,2.44,2.44,0,0,1,0-.88.37.37,0,0,1,.13-.2.48.48,0,0,1,.26-.06H59l.1-5.29H58.7a.55.55,0,0,1-.25-.05.36.36,0,0,1-.13-.21,1.53,1.53,0,0,1,0-.43,1.61,1.61,0,0,1,0-.44.34.34,0,0,1,.13-.2.44.44,0,0,1,.25-.06h1.93a.43.43,0,0,1,.24.05.27.27,0,0,1,.13.16L62.25,150l1.23-3.34a.28.28,0,0,1,.14-.16.41.41,0,0,1,.23-.05h1.94A.44.44,0,0,1,66,146.51Z" />
        <path class="cls-6" d="M81.66,146.51a.34.34,0,0,1,.14.2,1.68,1.68,0,0,1,0,.44,1.6,1.6,0,0,1,0,.43.37.37,0,0,1-.14.21.55.55,0,0,1-.25.05h-1.6v5.29h1.74a.44.44,0,0,1,.25.06.37.37,0,0,1,.13.2,2,2,0,0,1,0,.88.34.34,0,0,1-.13.2.44.44,0,0,1-.25.05H76.36a.44.44,0,0,1-.25-.05.34.34,0,0,1-.13-.2,2,2,0,0,1,0-.88.37.37,0,0,1,.13-.2.44.44,0,0,1,.25-.06h1.75v-5.29H76.5a.55.55,0,0,1-.25-.05.32.32,0,0,1-.13-.21,1.53,1.53,0,0,1-.05-.43,1.61,1.61,0,0,1,.05-.44.3.3,0,0,1,.13-.2.44.44,0,0,1,.25-.06h4.91A.44.44,0,0,1,81.66,146.51Z" />
        <path class="cls-6" d="M90.06,147.15a3,3,0,0,1,0,4.07,3.51,3.51,0,0,1-2.37.71h-1v1.2h1.48a.44.44,0,0,1,.25.06.37.37,0,0,1,.13.2,2,2,0,0,1,0,.88.34.34,0,0,1-.13.2.44.44,0,0,1-.25.05H84a.44.44,0,0,1-.25-.05.3.3,0,0,1-.13-.2,2,2,0,0,1,0-.88.32.32,0,0,1,.13-.2.44.44,0,0,1,.25-.06h1v-5.29H84a.55.55,0,0,1-.25-.05.32.32,0,0,1-.13-.21,1.53,1.53,0,0,1,0-.43,1.61,1.61,0,0,1,0-.44.3.3,0,0,1,.13-.2.44.44,0,0,1,.25-.06h3.72A3.51,3.51,0,0,1,90.06,147.15Zm-3.39,3.31h.81a2,2,0,0,0,1.22-.31,1.34,1.34,0,0,0,0-1.93,2,2,0,0,0-1.22-.31h-.81Z" />
        <path class="cls-6" d="M98.34,146.4a.34.34,0,0,1,.18.33v1.86a.37.37,0,0,1-.14.33.86.86,0,0,1-.48.1,1.15,1.15,0,0,1-.36-.05.47.47,0,0,1-.2-.17,2.3,2.3,0,0,0-.83-.78,2.39,2.39,0,0,0-1.16-.27,1.13,1.13,0,0,0-.78.25.83.83,0,0,0-.28.65.48.48,0,0,0,.12.33,1.18,1.18,0,0,0,.36.22,6.77,6.77,0,0,0,1,.23c.48.1.86.18,1.16.26a3.13,3.13,0,0,1,.84.36,2.29,2.29,0,0,1,1.09,2.13,2.62,2.62,0,0,1-.31,1.31,2.18,2.18,0,0,1-.95.87,3.47,3.47,0,0,1-1.56.31,2.88,2.88,0,0,1-1.93-.68v.26a.33.33,0,0,1-.16.32,1.22,1.22,0,0,1-.6.1,1.37,1.37,0,0,1-.62-.1.33.33,0,0,1-.18-.32V152a.39.39,0,0,1,.14-.33,1,1,0,0,1,.49-.1.79.79,0,0,1,.37.07.41.41,0,0,1,.22.21,2.8,2.8,0,0,0,.87,1.05,2,2,0,0,0,1.2.35,1.49,1.49,0,0,0,.91-.24.81.81,0,0,0,.31-.68.78.78,0,0,0-.14-.46,1.2,1.2,0,0,0-.4-.32,2.48,2.48,0,0,0-.48-.17l-.78-.18-1-.22a4.14,4.14,0,0,1-.72-.28,2.29,2.29,0,0,1-.81-.73,2.16,2.16,0,0,1-.29-1.17,2.46,2.46,0,0,1,.33-1.28,2.35,2.35,0,0,1,.94-.88,2.92,2.92,0,0,1,1.38-.31,2.7,2.7,0,0,1,1,.18,2.25,2.25,0,0,1,.81.5v-.25a.34.34,0,0,1,.16-.33,1.24,1.24,0,0,1,.6-.1A1.34,1.34,0,0,1,98.34,146.4Z" />
        <path class="cls-6" d="M107.68,146.51a.34.34,0,0,1,.13.2,1.61,1.61,0,0,1,0,.44,1.53,1.53,0,0,1,0,.43.36.36,0,0,1-.13.21.55.55,0,0,1-.25.05h-.32v3.87a3.22,3.22,0,0,1-.38,1.61,2.41,2.41,0,0,1-1.06,1,4.17,4.17,0,0,1-3.3,0,2.41,2.41,0,0,1-1.06-1,3.22,3.22,0,0,1-.38-1.61v-3.87h-.32a.55.55,0,0,1-.25-.05.36.36,0,0,1-.13-.21,1.53,1.53,0,0,1,0-.43,1.61,1.61,0,0,1,0-.44.34.34,0,0,1,.13-.2.44.44,0,0,1,.25-.06h2.55a.46.46,0,0,1,.25.06.34.34,0,0,1,.13.2,1.61,1.61,0,0,1,0,.44,1.53,1.53,0,0,1,0,.43.36.36,0,0,1-.13.21.58.58,0,0,1-.25.05h-.53v3.74a1.59,1.59,0,0,0,.38,1.16,1.5,1.5,0,0,0,2,0,1.59,1.59,0,0,0,.38-1.16v-3.74h-.53a.58.58,0,0,1-.25-.05.36.36,0,0,1-.13-.21,1.6,1.6,0,0,1,0-.43,1.68,1.68,0,0,1,0-.44.34.34,0,0,1,.13-.2.46.46,0,0,1,.25-.06h2.55A.44.44,0,0,1,107.68,146.51Z" />
        <path class="cls-6" d="M116.17,146.51a.34.34,0,0,1,.13.2,1.61,1.61,0,0,1,0,.44,1.53,1.53,0,0,1,0,.43.36.36,0,0,1-.13.21.55.55,0,0,1-.25.05h-.37l.1,5.29h.4a.48.48,0,0,1,.26.06.37.37,0,0,1,.13.2,2.44,2.44,0,0,1,0,.88.34.34,0,0,1-.13.2.48.48,0,0,1-.26.05h-2.54a.44.44,0,0,1-.25-.05.34.34,0,0,1-.13-.2,2,2,0,0,1,0-.88.37.37,0,0,1,.13-.2.44.44,0,0,1,.25-.06h.63l0-4-1,2.78a.58.58,0,0,1-.25.33.78.78,0,0,1-.44.1.83.83,0,0,1-.45-.1.63.63,0,0,1-.25-.33l-1-2.76,0,4h.63a.44.44,0,0,1,.25.06.37.37,0,0,1,.13.2,2,2,0,0,1,0,.88.34.34,0,0,1-.13.2.44.44,0,0,1-.25.05h-2.55a.47.47,0,0,1-.25-.05.34.34,0,0,1-.13-.2,2.44,2.44,0,0,1,0-.88.37.37,0,0,1,.13-.2.46.46,0,0,1,.25-.06h.41l.1-5.29h-.37a.55.55,0,0,1-.25-.05.32.32,0,0,1-.13-.21,1.53,1.53,0,0,1,0-.43,1.61,1.61,0,0,1,0-.44.3.3,0,0,1,.13-.2.44.44,0,0,1,.25-.06h1.93a.43.43,0,0,1,.24.05.27.27,0,0,1,.13.16l1.25,3.34,1.23-3.34a.25.25,0,0,1,.14-.16.39.39,0,0,1,.23-.05h1.94A.44.44,0,0,1,116.17,146.51Z" />
        <path class="cls-6" d="M233.94,146.68a2.3,2.3,0,0,1,.8,1.08,4.23,4.23,0,0,1,.28,1.62,7.64,7.64,0,0,1-.4,2.4,5.18,5.18,0,0,1-1.22,2.06,2.7,2.7,0,0,1-2,.83,2,2,0,0,1-1.25-.38,2.3,2.3,0,0,1-.8-1.08,4.23,4.23,0,0,1-.28-1.62,7.64,7.64,0,0,1,.4-2.4,5.25,5.25,0,0,1,1.22-2.06,2.74,2.74,0,0,1,2-.83A2.1,2.1,0,0,1,233.94,146.68ZM231.28,148a4.8,4.8,0,0,0-.87,1.67,6.91,6.91,0,0,0-.3,2,2.7,2.7,0,0,0,.36,1.51,1.16,1.16,0,0,0,1,.53,1.69,1.69,0,0,0,1.32-.67,4.75,4.75,0,0,0,.87-1.66,7,7,0,0,0,.3-2,2.61,2.61,0,0,0-.37-1.51,1.13,1.13,0,0,0-1-.53A1.7,1.7,0,0,0,231.28,148Z" />
        <path class="cls-6" d="M242.7,153.67a.26.26,0,0,1,.09.23.63.63,0,0,1,0,.16.6.6,0,0,1-.15.36.52.52,0,0,1-.35.1h-4.59a.45.45,0,0,1-.28-.07.3.3,0,0,1-.08-.23,1.1,1.1,0,0,1,0-.16.67.67,0,0,1,.16-.36.52.52,0,0,1,.35-.1h1.7l1-5.77-1.82,1a.53.53,0,0,1-.2,0c-.14,0-.27-.1-.37-.3a.64.64,0,0,1-.09-.3.35.35,0,0,1,.23-.32l2.92-1.63a.63.63,0,0,1,.29-.08.27.27,0,0,1,.2.07.25.25,0,0,1,.08.21v.09l-1.23,6.95h1.86A.43.43,0,0,1,242.7,153.67Z" />
        <path class="cls-6" d="M252.28,145.15a.3.3,0,0,1,.15.26.41.41,0,0,1-.05.17L246,156.72c-.08.15-.26.22-.53.22a.67.67,0,0,1-.39-.11.3.3,0,0,1-.15-.26.41.41,0,0,1,.05-.17l6.42-11.14c.08-.15.26-.22.53-.22A.67.67,0,0,1,252.28,145.15Z" />
        <path class="cls-6" d="M267.11,146.54a1.87,1.87,0,0,1,.81.71,2,2,0,0,1,.29,1.08,2.61,2.61,0,0,1-.2,1,3.44,3.44,0,0,1-.59.91,10.66,10.66,0,0,1-1.06,1l-2.7,2.32h3l.18-1a.55.55,0,0,1,.17-.34.68.68,0,0,1,.42-.11.69.69,0,0,1,.34.07.27.27,0,0,1,.1.24,1,1,0,0,1,0,.14l-.26,1.45a.61.61,0,0,1-.16.36.48.48,0,0,1-.34.1h-4.86a.43.43,0,0,1-.28-.07.27.27,0,0,1-.09-.23s0-.09,0-.16a.61.61,0,0,1,.17-.37l3.53-3c.36-.31.65-.59.87-.82a3.13,3.13,0,0,0,.48-.7,1.74,1.74,0,0,0,.16-.75,1,1,0,0,0-.34-.79,1.47,1.47,0,0,0-1-.29,3,3,0,0,0-1.48.41l-.13.71a.46.46,0,0,1-.17.34.67.67,0,0,1-.41.11.74.74,0,0,1-.35-.07.27.27,0,0,1-.1-.24.88.88,0,0,1,0-.14l.19-1a.5.5,0,0,1,.22-.37,4.35,4.35,0,0,1,2.33-.72A2.84,2.84,0,0,1,267.11,146.54Z" />
        <path class="cls-6" d="M276.64,146.52a.26.26,0,0,1,.09.23.63.63,0,0,1,0,.16.61.61,0,0,1-.16.36.5.5,0,0,1-.35.1H273l-.47,2.15a3.14,3.14,0,0,1,1.46-.34,2.37,2.37,0,0,1,1.22.29,1.91,1.91,0,0,1,.78.81,2.59,2.59,0,0,1,.27,1.2,3.37,3.37,0,0,1-.36,1.49,3.13,3.13,0,0,1-1.1,1.22,3.33,3.33,0,0,1-1.83.48,4,4,0,0,1-1.27-.21,4,4,0,0,1-1.1-.6.35.35,0,0,1-.16-.3.75.75,0,0,1,.14-.37c.13-.19.26-.29.39-.29a.32.32,0,0,1,.2.09,3.27,3.27,0,0,0,.88.49,2.6,2.6,0,0,0,1,.19,2.11,2.11,0,0,0,1.19-.32,2,2,0,0,0,.72-.82,2.31,2.31,0,0,0,.24-1,1.33,1.33,0,0,0-.37-1,1.42,1.42,0,0,0-1-.36,3,3,0,0,0-1.58.46.36.36,0,0,1-.17.07.59.59,0,0,1-.2,0,.81.81,0,0,1-.38-.07.19.19,0,0,1-.12-.21l.77-3.56a.59.59,0,0,1,.19-.34.62.62,0,0,1,.4-.1h3.64A.4.4,0,0,1,276.64,146.52Z" />
        <path class="cls-6" d="M280.6,94.56a17,17,0,0,0,0-24,1,1,0,0,0-1.44,0,1,1,0,0,0,0,1.45,15,15,0,0,1,0,21.14,1,1,0,1,0,1.44,1.44Z" />
        <path class="cls-6" d="M277.29,73.84a1,1,0,0,0-1.44,1.44,10.3,10.3,0,0,1,0,14.53,1,1,0,0,0,0,1.45,1,1,0,0,0,1.44,0A12.34,12.34,0,0,0,277.29,73.84Z" />
        <path class="cls-6" d="M274.13,77a1,1,0,0,0-1.45,0,1,1,0,0,0,0,1.44,5.81,5.81,0,0,1,0,8.2,1,1,0,0,0,.72,1.74,1,1,0,0,0,.73-.3A7.85,7.85,0,0,0,274.13,77Z" />
        <path class="cls-6" d="M271.37,82.55a2,2,0,1,0-2,2A2,2,0,0,0,271.37,82.55Z" />
        <path class="cls-7" d="M49.73,74.14a6.14,6.14,0,0,0-6.13,6.13V92.68a6.14,6.14,0,0,0,12.27,0V80.27A6.14,6.14,0,0,0,49.73,74.14Z" />
        <path class="cls-8" d="M49.73,73.28a7,7,0,0,1,6.94,6.13h6.61V70.47H36.19v8.94H42.8A7,7,0,0,1,49.73,73.28Z" />
        <path class="cls-9" d="M64.14,79.41h9.13V75a4.49,4.49,0,0,0-4.5-4.5H64.14Z" />
        <path class="cls-10" d="M49.73,99.67a7,7,0,0,1-6.93-6.13H36.19v8.94H63.28V93.54H56.67A7,7,0,0,1,49.73,99.67Z" />
        <polygon class="cls-11" points="73.28 80.27 56.73 80.27 56.73 80.27 56.73 92.68 56.73 92.68 73.28 92.68 73.28 80.27" />
        <path class="cls-12" d="M35.33,93.54H26.19V98a4.5,4.5,0,0,0,4.51,4.51h4.63Z" />
        <path class="cls-13" d="M64.14,93.54v8.94h4.63A4.5,4.5,0,0,0,73.27,98V93.54Z" />
        <polygon class="cls-14" points="26.19 92.68 42.74 92.68 42.74 92.68 42.74 80.27 42.74 80.27 26.19 80.27 26.19 92.68" />
        <path class="cls-15" d="M35.33,79.41V70.47H30.7A4.5,4.5,0,0,0,26.19,75v4.44Z" />
        <path class="cls-6" d="M34.58,44.61a.28.28,0,0,1,.13.27V47a.29.29,0,0,1-.17.27,1.53,1.53,0,0,1-.57.08,1.4,1.4,0,0,1-.4,0,.32.32,0,0,1-.2-.11.3.3,0,0,1-.06-.2,1.3,1.3,0,0,0-.3-.9,1.12,1.12,0,0,0-.87-.33,1.35,1.35,0,0,0-1.18.56,2.78,2.78,0,0,0-.4,1.6A2.59,2.59,0,0,0,31,49.57a1.42,1.42,0,0,0,1.21.57,3.6,3.6,0,0,0,.93-.13,6.67,6.67,0,0,0,1-.4.41.41,0,0,1,.17,0c.17,0,.32.16.43.46a1,1,0,0,1,.08.38.41.41,0,0,1-.26.41,5.23,5.23,0,0,1-2.38.59A3,3,0,0,1,30.53,51a2.66,2.66,0,0,1-1.08-1.19A4,4,0,0,1,29.07,48a4.12,4.12,0,0,1,.37-1.81,2.83,2.83,0,0,1,1-1.2,2.78,2.78,0,0,1,1.5-.42,1.63,1.63,0,0,1,1.45.7v-.35a.29.29,0,0,1,.17-.27,1.27,1.27,0,0,1,.52-.08A1,1,0,0,1,34.58,44.61Z" />
        <path class="cls-6" d="M41,45.17a1.85,1.85,0,0,1,.63,1.51,1.58,1.58,0,0,1-1.38,1.63,1.05,1.05,0,0,1,.48.34A2.2,2.2,0,0,1,41,49c.07.11.14.25.23.41s.16.31.21.39a.89.89,0,0,0,.22.27.35.35,0,0,0,.25.1H42a.37.37,0,0,1,.2,0,.3.3,0,0,1,.11.17,1.19,1.19,0,0,1,0,.36,1.11,1.11,0,0,1,0,.36.27.27,0,0,1-.11.17.37.37,0,0,1-.2,0h-.55a1.27,1.27,0,0,1-.71-.18,1.63,1.63,0,0,1-.5-.6,4.22,4.22,0,0,1-.27-.53c-.07-.17-.15-.32-.21-.45a3.61,3.61,0,0,0-.23-.36,1,1,0,0,0-.38-.35,1.13,1.13,0,0,0-.51-.1h-.36v1.43h.54a.41.41,0,0,1,.21,0,.3.3,0,0,1,.11.17,1.63,1.63,0,0,1,0,.36,1.49,1.49,0,0,1,0,.36.27.27,0,0,1-.11.17.41.41,0,0,1-.21,0H36.26a.41.41,0,0,1-.21,0,.31.31,0,0,1-.1-.17,1.11,1.11,0,0,1,0-.36,1.19,1.19,0,0,1,0-.36.35.35,0,0,1,.1-.17.41.41,0,0,1,.21,0h.6V45.8h-.6a.41.41,0,0,1-.21,0,.28.28,0,0,1-.1-.16,1.15,1.15,0,0,1,0-.36,1.11,1.11,0,0,1,0-.36.31.31,0,0,1,.1-.17.41.41,0,0,1,.21-.05H39.2A2.81,2.81,0,0,1,41,45.17Zm-2.76,2.34h.84a1.39,1.39,0,0,0,.84-.21.85.85,0,0,0,0-1.24,1.39,1.39,0,0,0-.84-.21h-.84Z" />
        <path class="cls-6" d="M48.71,44.74a.36.36,0,0,1,.09.28V46.7a.27.27,0,0,1-.16.27,1.15,1.15,0,0,1-.52.08,1.09,1.09,0,0,1-.48-.07.33.33,0,0,1-.13-.28v-.85H45.28v1.42h1.36a.3.3,0,0,1,.28.13,1.42,1.42,0,0,1,0,.94.3.3,0,0,1-.28.13H45.28v1.61h2.29V49a.29.29,0,0,1,.17-.27,1.3,1.3,0,0,1,.53-.08,1.16,1.16,0,0,1,.51.08.28.28,0,0,1,.13.27v2a.4.4,0,0,1-.08.27.38.38,0,0,1-.28.09H43.34a.4.4,0,0,1-.2,0,.27.27,0,0,1-.11-.17,1.11,1.11,0,0,1,0-.36,1.19,1.19,0,0,1,0-.36.3.3,0,0,1,.11-.17.4.4,0,0,1,.2,0h.55V45.8h-.55a.39.39,0,0,1-.2,0,.24.24,0,0,1-.11-.16,1.15,1.15,0,0,1,0-.36,1.11,1.11,0,0,1,0-.36.27.27,0,0,1,.11-.17.39.39,0,0,1,.2-.05h5.1A.34.34,0,0,1,48.71,44.74Z" />
        <path class="cls-6" d="M54.74,45a2.49,2.49,0,0,1,1.07,1.13,4.43,4.43,0,0,1,0,3.59,2.49,2.49,0,0,1-1.07,1.13,3.42,3.42,0,0,1-1.68.39H50.43a.41.41,0,0,1-.21,0,.32.32,0,0,1-.11-.17,1.6,1.6,0,0,1,0-.36,1.73,1.73,0,0,1,0-.36.36.36,0,0,1,.11-.17.41.41,0,0,1,.21,0H51V45.8h-.54a.41.41,0,0,1-.21,0,.29.29,0,0,1-.11-.16,1.66,1.66,0,0,1,0-.36,1.6,1.6,0,0,1,0-.36.32.32,0,0,1,.11-.17.41.41,0,0,1,.21-.05h2.63A3.42,3.42,0,0,1,54.74,45Zm-2.37,5H53a1.58,1.58,0,0,0,1.3-.54,3,3,0,0,0,0-3.15,1.58,1.58,0,0,0-1.3-.54h-.58Z" />
        <path class="cls-6" d="M62.47,44.7a.27.27,0,0,1,.11.17,1.11,1.11,0,0,1,0,.36,1.15,1.15,0,0,1,0,.36.24.24,0,0,1-.11.16.34.34,0,0,1-.2,0H61v4.34h1.43a.41.41,0,0,1,.21,0,.45.45,0,0,1,.11.17,1.73,1.73,0,0,1,0,.36,1.6,1.6,0,0,1,0,.36.38.38,0,0,1-.11.17.41.41,0,0,1-.21,0H58.13a.41.41,0,0,1-.21,0,.32.32,0,0,1-.11-.17,1.49,1.49,0,0,1,0-.36,1.63,1.63,0,0,1,0-.36.36.36,0,0,1,.11-.17.41.41,0,0,1,.21,0h1.42V45.8H58.24a.41.41,0,0,1-.21,0,.29.29,0,0,1-.11-.16,1.66,1.66,0,0,1,0-.36,1.6,1.6,0,0,1,0-.36A.32.32,0,0,1,58,44.7a.41.41,0,0,1,.21-.05h4A.34.34,0,0,1,62.47,44.7Z" />
        <path class="cls-6" d="M70.13,44.74a.36.36,0,0,1,.09.28v2.35a.27.27,0,0,1-.16.27,1,1,0,0,1-.47.08.74.74,0,0,1-.42-.08.3.3,0,0,1-.13-.27V45.85H68v4.29h1.21a.41.41,0,0,1,.21,0,.36.36,0,0,1,.11.17,1.73,1.73,0,0,1,0,.36,1.6,1.6,0,0,1,0,.36.32.32,0,0,1-.11.17.41.41,0,0,1-.21,0H65.43a.37.37,0,0,1-.2,0,.27.27,0,0,1-.11-.17,1.11,1.11,0,0,1,0-.36,1.19,1.19,0,0,1,0-.36.3.3,0,0,1,.11-.17.37.37,0,0,1,.2,0h1.21V45.85h-1v1.52a.27.27,0,0,1-.16.27.94.94,0,0,1-.47.08.74.74,0,0,1-.42-.08.29.29,0,0,1-.12-.27V45a.41.41,0,0,1,.08-.28.38.38,0,0,1,.28-.09h5A.36.36,0,0,1,70.13,44.74Z" />
        <path class="cls-6" d="M84.17,44.61a.29.29,0,0,1,.12.27V47a.29.29,0,0,1-.16.27,1.57,1.57,0,0,1-.57.08,1.48,1.48,0,0,1-.41,0,.29.29,0,0,1-.19-.11.3.3,0,0,1-.06-.2,1.26,1.26,0,0,0-.31-.9,1.11,1.11,0,0,0-.86-.33,1.35,1.35,0,0,0-1.18.56,2.7,2.7,0,0,0-.4,1.6,2.66,2.66,0,0,0,.42,1.61,1.43,1.43,0,0,0,1.21.57,3.48,3.48,0,0,0,.93-.13,6.76,6.76,0,0,0,1-.4.37.37,0,0,1,.16,0c.18,0,.32.16.44.46a1.23,1.23,0,0,1,.08.38.43.43,0,0,1-.26.41,5.26,5.26,0,0,1-2.38.59A3.1,3.1,0,0,1,80.11,51,2.78,2.78,0,0,1,79,49.79,4.18,4.18,0,0,1,78.65,48,4.12,4.12,0,0,1,79,46.15a2.76,2.76,0,0,1,1-1.2,2.73,2.73,0,0,1,1.5-.42,1.65,1.65,0,0,1,1.45.7v-.35a.29.29,0,0,1,.16-.27,1.31,1.31,0,0,1,.52-.08A1.06,1.06,0,0,1,84.17,44.61Z" />
        <path class="cls-6" d="M89.41,44.74a.51.51,0,0,1,.21.28l1.61,5.12h.49a.41.41,0,0,1,.21,0,.38.38,0,0,1,.11.17,1.6,1.6,0,0,1,0,.36,1.56,1.56,0,0,1,0,.35.38.38,0,0,1-.11.17.33.33,0,0,1-.21.05H89.35a.28.28,0,0,1-.2-.05.27.27,0,0,1-.11-.17,1.08,1.08,0,0,1,0-.35,1.11,1.11,0,0,1,0-.36.27.27,0,0,1,.11-.17.35.35,0,0,1,.2,0h.48l-.25-.81h-2l-.25.81h.41a.41.41,0,0,1,.21,0,.32.32,0,0,1,.11.17,1.6,1.6,0,0,1,0,.36,1.56,1.56,0,0,1,0,.35.32.32,0,0,1-.11.17.33.33,0,0,1-.21.05H85.46a.33.33,0,0,1-.21-.05.32.32,0,0,1-.11-.17,1.46,1.46,0,0,1,0-.35,1.49,1.49,0,0,1,0-.36.32.32,0,0,1,.11-.17.41.41,0,0,1,.21,0h.46l1.42-4.34h-.93a.41.41,0,0,1-.21,0,.27.27,0,0,1-.11-.17,1.49,1.49,0,0,1,0-.36,1.46,1.46,0,0,1,0-.35.24.24,0,0,1,.11-.17.41.41,0,0,1,.21-.05h2.64A.64.64,0,0,1,89.41,44.74Zm-.85,1.06-.69,2.38h1.39l-.67-2.38Z" />
        <path class="cls-6" d="M97.68,45.17a1.85,1.85,0,0,1,.63,1.51,1.58,1.58,0,0,1-1.38,1.63,1.05,1.05,0,0,1,.48.34,2.2,2.2,0,0,1,.21.32c.07.11.14.25.23.41s.16.31.21.39a.89.89,0,0,0,.22.27.35.35,0,0,0,.25.1h.11a.37.37,0,0,1,.2,0,.3.3,0,0,1,.11.17,1.19,1.19,0,0,1,0,.36,1.11,1.11,0,0,1,0,.36.27.27,0,0,1-.11.17.37.37,0,0,1-.2,0h-.55a1.27,1.27,0,0,1-.71-.18,1.63,1.63,0,0,1-.5-.6,4.22,4.22,0,0,1-.27-.53c-.07-.17-.15-.32-.21-.45a3.61,3.61,0,0,0-.23-.36,1,1,0,0,0-.38-.35,1.13,1.13,0,0,0-.51-.1h-.36v1.43h.54a.41.41,0,0,1,.21,0,.3.3,0,0,1,.11.17,1.63,1.63,0,0,1,0,.36,1.49,1.49,0,0,1,0,.36.27.27,0,0,1-.11.17.41.41,0,0,1-.21,0H92.93a.41.41,0,0,1-.21,0,.31.31,0,0,1-.1-.17,1.11,1.11,0,0,1,0-.36,1.19,1.19,0,0,1,0-.36.35.35,0,0,1,.1-.17.41.41,0,0,1,.21,0h.6V45.8h-.6a.41.41,0,0,1-.21,0,.28.28,0,0,1-.1-.16,1.15,1.15,0,0,1,0-.36,1.11,1.11,0,0,1,0-.36.31.31,0,0,1,.1-.17.41.41,0,0,1,.21-.05h2.94A2.81,2.81,0,0,1,97.68,45.17Zm-2.76,2.34h.84a1.39,1.39,0,0,0,.84-.21.85.85,0,0,0,0-1.24,1.39,1.39,0,0,0-.84-.21h-.84Z" />
        <path class="cls-6" d="M104.32,45a2.57,2.57,0,0,1,1.08,1.13,4.43,4.43,0,0,1,0,3.59,2.57,2.57,0,0,1-1.08,1.13,3.39,3.39,0,0,1-1.68.39H100a.4.4,0,0,1-.2,0,.27.27,0,0,1-.11-.17,1.11,1.11,0,0,1,0-.36,1.19,1.19,0,0,1,0-.36.3.3,0,0,1,.11-.17.4.4,0,0,1,.2,0h.55V45.8H100a.39.39,0,0,1-.2,0,.24.24,0,0,1-.11-.16,1.15,1.15,0,0,1,0-.36,1.11,1.11,0,0,1,0-.36.27.27,0,0,1,.11-.17.39.39,0,0,1,.2-.05h2.63A3.39,3.39,0,0,1,104.32,45Zm-2.37,5h.58a1.6,1.6,0,0,0,1.31-.54,3,3,0,0,0,0-3.15,1.6,1.6,0,0,0-1.31-.54H102Z" />
      </g>
    </g>
  </g>
</svg>