<svg xmlns="http://www.w3.org/2000/svg" viewBox="0 0 81.1 75.28">
  <defs>
    <style>
    .cls-2 {
      fill: #7814ad;
    }
    </style>
  </defs>
  <g id="Layer_2" data-name="Layer 2">
    <g id="Layer_1-2" data-name="Layer 1">
      <path class="cls-2" d="M73.48,5.91C72.62,2.3,69.73.08,65.68.07H55.35A10.75,10.75,0,0,0,54,0c-4.52.07-9,.08-13.56.09S25.89,0,25.44.08H15.1c-4,0-6.94,2.23-7.79,5.84-.25,1-.15,1.61,1.1,1.93A10.5,10.5,0,0,1,16.5,18.29c0,6.21,0,12.42,0,18.63,0,2,.06,2.09,2.06,2.09H62.21c2,0,2.07-.06,2.07-2.09,0-6.21,0-12.42,0-18.63A10.5,10.5,0,0,1,72.37,7.84C73.62,7.52,73.72,7,73.48,5.91Z" />
      <path class="cls-2" d="M81,17.87a5.35,5.35,0,0,0-3.7-5.15c-3.92-1.53-7.83,1.29-7.87,5.74-.05,6.53,0,13.06,0,19.59,0,4-1.82,5.79-5.8,5.79H17.48c-4,0-5.8-1.83-5.8-5.79,0-6.53,0-13.06,0-19.59,0-4.45-3.94-7.27-7.86-5.74A5.35,5.35,0,0,0,.1,17.87c-.07,8-.21,16,0,23.93.27,8.61,7.34,15.46,16.28,16,1.63.1,1.81.63,1.52,2-.48,2.24-.82,4.52-1.22,6.79a4.93,4.93,0,0,0-1.22,2.85A2.16,2.16,0,0,0,17,72a2.08,2.08,0,0,0,2.68-1.13,36,36,0,0,0,1.74-4.27c.59-1.83,1.31-3.62,1.95-5.43a3.32,3.32,0,0,1,3.56-2.41c.74,0,1.49,0,2.24,0H52c.75,0,1.5,0,2.25,0a3.33,3.33,0,0,1,3.56,2.41c.64,1.81,1.36,3.6,1.95,5.43a36,36,0,0,0,1.74,4.27A2.07,2.07,0,0,0,64.13,72a2.15,2.15,0,0,0,1.46-2.51,4.86,4.86,0,0,0-1.22-2.85c-.39-2.27-.73-4.55-1.21-6.79-.3-1.38-.12-1.91,1.52-2,8.94-.58,16-7.43,16.28-16C81.2,33.83,81.06,25.85,81,17.87Z" />
    </g>
  </g>
</svg>