<svg xmlns="http://www.w3.org/2000/svg" viewBox="0 0 396 107.12">
  <defs>
    <style>
    .cls-1 {
      fill: #fff;
    }
    </style>
  </defs>
  <g id="Layer_2" data-name="Layer 2">
    <g id="Layer_1-2" data-name="Layer 1">
      <path class="cls-1" d="M78.32,18.68C76,18.49,69,17.44,65.09,14.9a23.24,23.24,0,0,1-5.56-5.79C56.39,5,52.64,0,43.7,0H37.9C28.56,0,23.59,7,22,9.11l0,0L22,9a22.9,22.9,0,0,1-5.56,5.79C12.52,17.35,5.56,18.4,3.21,18.59A3.49,3.49,0,0,0,0,21.92V24.5c1.71.21,6.53.38,6.53,15.78h0v.09c0,15,11.77,20.17,19.42,21.08l-14.86,41a3.5,3.5,0,0,0,2.09,4.47h0a3.41,3.41,0,0,0,1.18.21,3.5,3.5,0,0,0,3.29-2.3l8.51-23.5L40.86,72l14.69,9.33,8.51,23.5a3.49,3.49,0,0,0,3.28,2.3,3.43,3.43,0,0,0,1.19-.21,3.49,3.49,0,0,0,2.09-4.47h0l-14.85-41C63.32,60.5,75,55.28,75,40.37,75,25,79.82,24.8,81.53,24.59V22a3.49,3.49,0,0,0-3.21-3.33M28.77,74.16l2.9-8,4.85,3.08Zm4.52-12.49,0-.07H48.4l0,.07-7.57,4.81ZM45.2,69.24l4.85-3.08,2.9,8ZM68,40.37c0,5.27-2,8.57-4.59,10.67-.25-4.35-10.29-7.84-22.66-7.84S18.4,46.68,18.11,51c-2.54-2.1-4.6-5.4-4.6-10.64,0-1,0-1.89-.06-2.77-.25-6.12-1.39-10.27-2.8-13.09a31.17,31.17,0,0,0,9.59-3.75,29.27,29.27,0,0,0,7.31-7.43c3-3.88,4.92-6.52,10.29-6.35h5.92C49.07,6.93,51,9.45,54,13.33a29.27,29.27,0,0,0,7.31,7.43,31.52,31.52,0,0,0,9.63,3.76c-1.63,3.2-2.9,8.17-2.9,15.85" />
      <path class="cls-1" d="M104.82,58.9V26.39h6.92v32c0,10.38,6,15.68,14.45,15.68s14.53-5.3,14.53-15.68v-32h6.84V58.9c0,14-8,22.06-21.37,22.06s-21.37-8.07-21.37-22.06m92.63-12.68c6.76,2.46,10.68,8.61,10.68,16.45,0,9.14-4.53,17.21-19.21,17.52H168.24V26.39h21.52c9.45,0,12.07,6.92,12.07,11.3a11.19,11.19,0,0,1-4.38,8.53m-8.53-13.6H175.16v12h12.3c5.45,0,7.6-2.77,7.6-6.07a5.78,5.78,0,0,0-6.14-5.92m-.62,41c8.92,0,12.76-4.45,12.76-10.91,0-7.23-4-12.3-12.61-12.3H175.16V73.58ZM251.64,81a27.67,27.67,0,1,1,27.59-27.67A27.49,27.49,0,0,1,251.64,81m0-6.61c11.68,0,20.45-9.15,20.45-21.06s-8.77-21.06-20.45-21.06-20.52,9.15-20.52,21.06,8.76,21.06,20.52,21.06m83.56-48h6.91V81h-.84L305.14,42.61V80.19H298.3V25.62h.77L335.2,64Zm60.34,47.19.46,6.61H363.26V26.39h31.2L395,33H370.18V46.14H387v6.61H370.18V73.58Z" />
    </g>
  </g>
</svg>