<svg xmlns="http://www.w3.org/2000/svg" viewBox="0 0 332.73 75.28"><defs><style>.cls-1{fill:#242424;}.cls-2{fill:#e0e0e0;}.cls-3{fill:#7814ad;}</style></defs><g id="Layer_2" data-name="Layer 2"><g id="Layer_1-2" data-name="Layer 1"><path class="cls-1" d="M106.94,22.65V54.94h-5.35V22.65Zm-2,0H119.4v4.89H105Zm0,13h14v4.75H105Z"/><path class="cls-1" d="M130.84,22.65V44.1a7.05,7.05,0,0,0,1.61,4.8,7,7,0,0,0,9.44,0,7.09,7.09,0,0,0,1.59-4.8V22.65H149V44.33a12.72,12.72,0,0,1-.85,4.77,10,10,0,0,1-2.45,3.58,10.89,10.89,0,0,1-3.76,2.26,14.85,14.85,0,0,1-9.5,0,10.71,10.71,0,0,1-3.74-2.26,10.08,10.08,0,0,1-2.42-3.58,12.52,12.52,0,0,1-.85-4.77V22.65Z"/><path class="cls-1" d="M161.33,22.65V54.94h-5.44V22.65Zm-2.21,0h6.73A14,14,0,0,1,172,23.9a9.73,9.73,0,0,1,4,3.48,9.46,9.46,0,0,1,1.45,5.28A9.55,9.55,0,0,1,176,38a9.66,9.66,0,0,1-4,3.51,14,14,0,0,1-6.14,1.25h-6.73V38.2h6.5a7.9,7.9,0,0,0,3.28-.63,4.86,4.86,0,0,0,2.16-1.84,5.87,5.87,0,0,0,0-5.88A5.08,5.08,0,0,0,168.9,28a7.74,7.74,0,0,0-3.28-.64h-6.5Zm9.31,16.88,11,15.41h-6.6L162.57,39.53Z"/><path class="cls-1" d="M212.25,22.65v33.9L188.68,33.26V54.94h-5.35V21L206.9,44.33V22.65Z"/><path class="cls-1" d="M225,22.65V54.94h-5.54V22.65Z"/><path class="cls-1" d="M228.9,22.65h22.51v5h-8.53V54.94h-5.44V27.68H228.9Z"/><path class="cls-1" d="M260.59,22.65V44.1a7.05,7.05,0,0,0,1.61,4.8,7,7,0,0,0,9.44,0,7.09,7.09,0,0,0,1.59-4.8V22.65h5.49V44.33a12.52,12.52,0,0,1-.86,4.77,9.87,9.87,0,0,1-2.44,3.58,11,11,0,0,1-3.76,2.26,14.85,14.85,0,0,1-9.5,0,10.71,10.71,0,0,1-3.74-2.26A10.08,10.08,0,0,1,256,49.1a12.52,12.52,0,0,1-.85-4.77V22.65Z"/><path class="cls-1" d="M291.08,22.65V54.94h-5.45V22.65Zm-2.21,0h6.73a14,14,0,0,1,6.13,1.25,9.7,9.7,0,0,1,4,3.48,9.46,9.46,0,0,1,1.45,5.28,9.35,9.35,0,0,1-5.49,8.81,14,14,0,0,1-6.13,1.25h-6.73V38.2h6.5a7.82,7.82,0,0,0,3.27-.63,4.89,4.89,0,0,0,2.17-1.84,5.93,5.93,0,0,0,0-5.88A5.11,5.11,0,0,0,298.64,28a7.66,7.66,0,0,0-3.27-.64h-6.5Zm9.31,16.88,11,15.41h-6.6L292.32,39.53Z"/><path class="cls-1" d="M318.43,22.65V54.94h-5.35V22.65Zm-2,0h16.29v4.8H316.44Zm0,12.64H331.8V40H316.44Zm0,14.85h16.29v4.8H316.44Z"/><ellipse class="cls-2" cx="40.55" cy="72.14" rx="34.59" ry="3.14"/><path class="cls-3" d="M73.48,5.91C72.62,2.3,69.73.08,65.68.07H55.35A10.75,10.75,0,0,0,54,0c-4.52.07-9,.08-13.56.09S25.89,0,25.44.08H15.1c-4,0-6.94,2.23-7.79,5.84-.25,1-.15,1.61,1.1,1.93A10.5,10.5,0,0,1,16.5,18.29c0,6.21,0,12.42,0,18.63,0,2,.06,2.09,2.06,2.09H62.21c2,0,2.07-.06,2.07-2.09,0-6.21,0-12.42,0-18.63A10.5,10.5,0,0,1,72.37,7.84C73.62,7.52,73.72,7,73.48,5.91Z"/><path class="cls-3" d="M81,17.87a5.35,5.35,0,0,0-3.7-5.15c-3.92-1.53-7.83,1.29-7.87,5.74-.05,6.53,0,13.06,0,19.59,0,4-1.82,5.79-5.8,5.79H17.48c-4,0-5.8-1.83-5.8-5.79,0-6.53,0-13.06,0-19.59,0-4.45-3.94-7.27-7.86-5.74A5.35,5.35,0,0,0,.1,17.87c-.07,8-.21,16,0,23.93.27,8.61,7.34,15.46,16.28,16,1.63.1,1.81.63,1.52,2-.48,2.24-.82,4.52-1.22,6.79a4.93,4.93,0,0,0-1.22,2.85A2.16,2.16,0,0,0,17,72a2.08,2.08,0,0,0,2.68-1.13,36,36,0,0,0,1.74-4.27c.59-1.83,1.31-3.62,1.95-5.43a3.32,3.32,0,0,1,3.56-2.41c.74,0,1.49,0,2.24,0H52c.75,0,1.5,0,2.25,0a3.33,3.33,0,0,1,3.56,2.41c.64,1.81,1.36,3.6,1.95,5.43a36,36,0,0,0,1.74,4.27A2.07,2.07,0,0,0,64.13,72a2.15,2.15,0,0,0,1.46-2.51,4.86,4.86,0,0,0-1.22-2.85c-.39-2.27-.73-4.55-1.21-6.79-.3-1.38-.12-1.91,1.52-2,8.94-.58,16-7.43,16.28-16C81.2,33.83,81.06,25.85,81,17.87Z"/></g></g></svg>